<?xml version="1.0" encoding="UTF-8" standalone="no"?>
<svg xmlns="http://www.w3.org/2000/svg" xmlns:svg="http://www.w3.org/2000/svg" version="1.1" viewBox="0 0 24 24">
	<path d="M 3.0000001,17 H 21 a 1,1 0 0 1 0.117,1.993 L 21,19 H 3.0000001 a 1,1 0 0 1 -0.117,-1.993 L 3.0000001,17 H 21 Z m 0,-6 L 21,10.998 a 1,1 0 0 1 0.117,1.993 L 21,12.998 3.0000001,13 a 1,1 0 0 1 -0.117,-1.993 L 3.0000001,11 21,10.998 Z m 0,-6 H 21 a 1,1 0 0 1 0.117,1.993 L 21,7 H 3.0000001 a 1,1 0 0 1 -0.117,-1.993 L 3.0000001,5 H 21 Z"/>
</svg>
