<?xml version="1.0" encoding="UTF-8" standalone="no"?>
<!-- Created with Inkscape (http://www.inkscape.org/) -->

<svg
   width="14mm"
   height="14mm"
   viewBox="0 0 14 14"
   version="1.1"
   id="svg5"
   inkscape:version="1.1.2 (0a00cf5339, 2022-02-04, custom)"
   sodipodi:docname="icon.svg"
   inkscape:export-filename="C:\Users\Brent Maxwell\OneDrive\Projects\FenderTone\LtAmp\Resources\icon.png"
   inkscape:export-xdpi="232.23"
   inkscape:export-ydpi="232.23"
   xmlns:inkscape="http://www.inkscape.org/namespaces/inkscape"
   xmlns:sodipodi="http://sodipodi.sourceforge.net/DTD/sodipodi-0.dtd"
   xmlns="http://www.w3.org/2000/svg"
   xmlns:svg="http://www.w3.org/2000/svg">
  <sodipodi:namedview
     id="namedview7"
     pagecolor="#ffffff"
     bordercolor="#666666"
     borderopacity="1.0"
     inkscape:pageshadow="2"
     inkscape:pageopacity="0.0"
     inkscape:pagecheckerboard="0"
     inkscape:document-units="mm"
     showgrid="false"
     fit-margin-top="1"
     fit-margin-left="1"
     fit-margin-right="1"
     fit-margin-bottom="1"
     inkscape:zoom="5.6568542"
     inkscape:cx="4.5961941"
     inkscape:cy="36.681164"
     inkscape:window-width="1920"
     inkscape:window-height="1014"
     inkscape:window-x="-8"
     inkscape:window-y="-8"
     inkscape:window-maximized="1"
     inkscape:current-layer="layer1"
     lock-margins="true" />
  <defs
     id="defs2" />
  <g
     inkscape:label="Layer 1"
     inkscape:groupmode="layer"
     id="layer1"
     transform="translate(-136.07809,148.67778)">
    <g
       id="g2417"
       transform="matrix(0.98562628,0,0,0.98562628,2.2265652,-2.122679)"
       style="stroke-width:1.01458">
      <path
         d="m 148.16749,-147.67778 h -10.51617 c -0.41089,0 -0.74571,0.35762 -0.74571,0.79897 v 10.57705 c 0,0.44132 0.33482,0.79898 0.74571,0.79898 h 10.51617 c 0.4033,0 0.73812,-0.35766 0.73812,-0.79898 v -10.57705 c 0,-0.44135 -0.33482,-0.79897 -0.73812,-0.79897 z m -4.83195,6.05706 0.77617,-0.82944 0.76093,0.82944 -0.76093,0.8294 -0.77617,-0.83703 z m 0.53266,1.08053 -0.77617,0.83703 -0.76093,-0.83703 0.76093,-0.82181 0.77617,0.83703 v -0.009 z m 1.25554,-0.82181 0.76093,0.8294 -0.76093,0.82182 -0.76855,-0.81419 0.76096,-0.82944 z m 0.2436,-0.25884 0.76093,-0.82943 0.77617,0.82943 -0.76855,0.82941 -0.76855,-0.83703 z m -0.2436,-0.25884 -0.76855,-0.82943 0.76096,-0.82182 0.77614,0.82182 z m -1.01203,-1.08054 -0.77617,-0.83702 0.31961,-0.3272 h 0.91313 l 0.31195,0.33482 -0.76093,0.82181 h -0.009 z m -0.24359,0.25108 -0.77618,0.82943 -0.76092,-0.82943 0.76092,-0.82182 z m -1.02728,1.08816 -0.76093,0.8294 -0.77617,-0.83703 0.77617,-0.81419 0.76855,0.82941 z m -1.00444,1.08053 -0.76093,0.83703 -0.77617,-0.83703 0.76855,-0.82181 0.76855,0.83703 v -0.009 z m -0.76093,-1.33926 -0.78376,-0.82943 0.76855,-0.82182 0.76855,0.82182 -0.76096,0.82943 z m -0.25107,0.25884 -0.76096,0.82941 -0.77614,-0.83703 0.76855,-0.82181 z m -1.01206,1.08054 -0.76093,0.83703 -0.77617,-0.83703 0.76855,-0.82181 0.76855,0.83702 v -0.009 z m -0.76093,-1.33926 -0.77617,-0.82944 0.76855,-0.82181 0.76855,0.82181 z m -1.03489,-1.08054 -0.20535,-0.22835 v -0.1369 c 0,-0.42611 0.30437,-0.76093 0.67721,-0.79136 l 0.30439,0.31958 -0.76095,0.82944 h -0.0144 z m 0,0.50983 0.76855,0.82943 -0.76093,0.82941 -0.21311,-0.22836 v -1.20227 z m 0,2.16869 0.76855,0.82941 -0.76093,0.83703 -0.21311,-0.23584 v -1.19465 l 0.20534,-0.22836 z m 1.01206,1.08813 0.76855,0.82944 -0.76096,0.82181 -0.77614,-0.82181 0.76855,-0.82182 z m 0.24359,-0.25884 0.76852,-0.8294 0.77618,0.8294 -0.76093,0.83703 -0.77617,-0.83703 z m 1.78821,0.26632 0.76855,0.82181 -0.76096,0.82182 -0.77614,-0.82182 z m 0.24359,-0.26632 0.77617,-0.8294 0.76855,0.8294 -0.76095,0.83703 -0.77615,-0.83703 z m 1.78061,0.26632 0.77614,0.82181 -0.77614,0.82182 -0.76096,-0.82182 z m 0.2436,-0.26632 0.77617,-0.8294 0.76093,0.8294 -0.76093,0.83703 z m 1.78823,0.26632 0.76093,0.82181 -0.76093,0.82182 -0.76855,-0.82182 0.76093,-0.82181 z m 0.2436,-0.26632 0.76095,-0.8294 0.77615,0.8294 -0.76855,0.83703 z m 1.7882,0.26632 0.76096,0.82181 -0.76096,0.82182 -0.77614,-0.82182 z m -0.77614,-1.35448 0.77614,-0.82181 0.76096,0.82941 -0.76096,0.82181 -0.77614,-0.82181 z m 0,-2.16869 0.77614,-0.82181 0.76096,0.82181 -0.76096,0.82943 z m -0.2436,-0.25107 -0.76855,-0.83703 0.30439,-0.3272 h 0.92072 l 0.31961,0.33482 -0.77617,0.82181 z m -0.95877,-3.74382 c 0.44132,0 0.79898,0.38046 0.79898,0.85227 0,0.47178 -0.35766,0.85224 -0.79898,0.85224 -0.43375,0 -0.78376,-0.38046 -0.78376,-0.85224 0,-0.47181 0.35001,-0.84465 0.78376,-0.84465 z m -2.2676,0 c 0.43373,0 0.79136,0.38046 0.79136,0.85227 0,0.47178 -0.35763,0.85224 -0.79136,0.85224 -0.44135,0 -0.79138,-0.38046 -0.79138,-0.85224 0,-0.47181 0.35003,-0.84465 0.78376,-0.84465 z m -0.36525,2.57959 0.30437,0.33482 -0.76093,0.82181 -0.77617,-0.82943 0.30439,-0.3272 z m -1.91756,-2.57197 c 0.44894,0 0.79897,0.38046 0.79897,0.84465 0,0.47178 -0.35003,0.85224 -0.79138,0.85224 -0.44132,0 -0.79136,-0.38046 -0.79136,-0.85224 0,-0.47181 0.35004,-0.84465 0.79136,-0.84465 z m -1.02728,2.57197 h 0.91313 l 0.31961,0.33482 -0.77618,0.82941 -0.76092,-0.82941 0.30436,-0.3272 z m -2.02409,-1.72732 c 0,-0.47181 0.35004,-0.85227 0.78376,-0.85227 0.44135,0 0.79898,0.38046 0.79898,0.85227 0,0.47178 -0.35763,0.85224 -0.79898,0.85224 -0.43372,0 -0.78376,-0.38046 -0.78376,-0.85224 z m 0.25107,8.82686 v -0.85986 l 0.20535,-0.22835 0.76855,0.83703 -0.75334,0.80659 a 0.79898525,0.79898525 0 0 1 -0.22058,-0.56308 z m 0.74572,0.78377 c -0.0762,0 -0.15214,-0.009 -0.22059,-0.0305 l 0.70007,-0.74571 0.7305,0.77614 h -1.21749 z m 0.71529,-1.04249 0.76855,-0.82181 0.77617,0.82181 -0.76096,0.82944 -0.77614,-0.82944 z m 1.06532,1.04249 0.72288,-0.77614 0.7305,0.77614 h -1.461 z m 0.96639,-1.04249 0.76855,-0.82181 0.76855,0.82181 -0.76096,0.82944 z m 1.05008,1.04249 0.7305,-0.77614 0.7305,0.77614 z m 0.97401,-1.04249 0.77617,-0.82181 0.76093,0.82181 -0.76093,0.82944 z m 1.0577,1.04249 0.7305,-0.77614 0.7305,0.77614 z m 0.97401,-1.04249 0.76093,-0.82181 0.77617,0.82181 -0.76855,0.82944 z m 1.99367,1.04249 h -0.93597 l 0.7305,-0.77614 0.60876,0.6544 a 0.7305008,0.7305008 0 0 1 -0.40329,0.12165 z m 0.74571,-0.79136 c 0,0.15214 -0.038,0.28156 -0.0989,0.4033 l -0.61636,-0.65443 0.71529,-0.76093 z m 0,-1.65125 -0.71529,-0.76855 0.71529,-0.76093 z m 0,-2.16866 -0.71529,-0.76855 0.71529,-0.76093 v 1.52185 z m 0,-2.16867 -0.71529,-0.77617 0.25108,-0.26632 c 0.27379,0.12166 0.46418,0.4033 0.46418,0.73809 z m -0.64681,-1.97845 c -0.44135,0 -0.79136,-0.38046 -0.79136,-0.85224 0,-0.47181 0.35001,-0.85227 0.79136,-0.85227 0.43373,0 0.79139,0.38046 0.79139,0.85227 0,0.47178 -0.35766,0.85224 -0.79139,0.85224 z"
         id="path856"
         style="stroke-width:0.268441" />
      <g
         id="g2411"
         style="stroke-width:1.01458">
        <path
           style="fill:#c0c0c0;fill-opacity:1;stroke-width:0.268441"
           d="m 146.85202,-142.67778 h -7.88714 c -0.30816,0 -0.55927,0.17624 -0.55927,0.39374 v 5.21251 c 0,0.21749 0.25111,0.39375 0.55927,0.39375 h 7.88714 c 0.30247,0 0.55359,-0.17626 0.55359,-0.39375 v -5.21251 c 0,-0.2175 -0.25112,-0.39374 -0.55359,-0.39374 z"
           id="path856-9" />
        <path
           id="path887-50-4"
           style="fill:#000000;fill-opacity:1;stroke:none;stroke-width:0.268441;stroke-opacity:1"
           d="m 145.27058,-140.77774 a 0.45676514,0.45676514 0 0 0 0,0.89489 v 2.06942 h 0.18177 v -2.06942 a 0.45676514,0.45676514 0 0 0 0,-0.89489 v -0.76438 h -0.18177 z m 0.36355,0.44744 c 0,0.14915 -0.12584,0.27966 -0.27266,0.27966 -0.14449,0 -0.27034,-0.13051 -0.27034,-0.27966 0,-0.14914 0.12585,-0.27965 0.27034,-0.27965 0.14682,0 0.27266,0.13051 0.27266,0.27965 z m 0.36354,1.30505 c 0,0.22372 0.16313,0.41015 0.36122,0.44744 v 0.76438 h 0.18177 v -0.76438 a 0.45676514,0.45676514 0 0 0 0,-0.89488 v -2.06943 h -0.1841 v 2.06943 a 0.45676514,0.45676514 0 0 0 -0.35889,0.44744 z m 0.72244,0 a 0.27965213,0.27965213 0 0 1 -0.27033,0.27965 c -0.14448,0 -0.27266,-0.13051 -0.27266,-0.27965 0,-0.14915 0.12818,-0.27965 0.27266,-0.27965 0.14449,0 0.27266,0.1305 0.27266,0.27965 z m -3.44953,-1.75249 a 0.45676514,0.45676514 0 0 0 0,0.89489 v 2.06942 h 0.18177 v -2.06942 a 0.45676514,0.45676514 0 0 0 0,-0.89489 v -0.76438 h -0.18177 z m 0.36355,0.44744 c 0,0.14915 -0.12584,0.27966 -0.27266,0.27966 -0.14449,0 -0.27034,-0.13051 -0.27034,-0.27966 0,-0.14914 0.12585,-0.27965 0.27034,-0.27965 0.14682,0 0.27266,0.13051 0.27266,0.27965 z m 0.36354,1.30505 c 0,0.22372 0.16313,0.41015 0.36122,0.44744 v 0.76438 h 0.18177 v -0.76438 a 0.45676514,0.45676514 0 0 0 0,-0.89488 v -2.06943 h -0.1841 v 2.06943 a 0.45676514,0.45676514 0 0 0 -0.35889,0.44744 z m 0.72244,0 a 0.27965213,0.27965213 0 0 1 -0.27033,0.27965 c -0.14448,0 -0.27266,-0.13051 -0.27266,-0.27965 0,-0.14915 0.12818,-0.27965 0.27266,-0.27965 0.14449,0 0.27266,0.1305 0.27266,0.27965 z m -3.44953,-1.75249 a 0.45676514,0.45676514 0 0 0 0,0.89489 v 2.06942 h 0.18177 v -2.06942 a 0.45676514,0.45676514 0 0 0 0,-0.89489 v -0.76438 h -0.18177 z m 0.36355,0.44744 c 0,0.14915 -0.12584,0.27966 -0.27266,0.27966 -0.14449,0 -0.27034,-0.13051 -0.27034,-0.27966 0,-0.14914 0.12585,-0.27965 0.27034,-0.27965 0.14682,0 0.27266,0.13051 0.27266,0.27965 z m 0.36354,1.30505 c 0,0.22372 0.16313,0.41015 0.36122,0.44744 v 0.76438 h 0.18177 v -0.76438 a 0.45676514,0.45676514 0 0 0 0,-0.89488 v -2.06943 h -0.1841 v 2.06943 a 0.45676514,0.45676514 0 0 0 -0.35889,0.44744 z m 0.72244,0 a 0.27965213,0.27965213 0 0 1 -0.27033,0.27965 c -0.14448,0 -0.27266,-0.13051 -0.27266,-0.27965 0,-0.14915 0.12818,-0.27965 0.27266,-0.27965 0.14449,0 0.27266,0.1305 0.27266,0.27965 z m -3.44952,-1.7525 a 0.45676514,0.45676514 0 0 0 0,0.89489 v 2.06942 h 0.18177 v -2.06942 a 0.45676514,0.45676514 0 0 0 0,-0.89489 v -0.76438 h -0.18177 z m 0.36355,0.44744 c 0,0.14915 -0.12584,0.27966 -0.27266,0.27966 -0.14449,0 -0.27034,-0.13051 -0.27034,-0.27966 0,-0.14914 0.12585,-0.27965 0.27034,-0.27965 0.14682,0 0.27266,0.13051 0.27266,0.27965 z m 0.36354,1.30505 c 0,0.22372 0.16313,0.41015 0.36122,0.44744 v 0.76438 h 0.18177 v -0.76438 a 0.45676514,0.45676514 0 0 0 0,-0.89488 v -2.06943 h -0.1841 v 2.06943 a 0.45676514,0.45676514 0 0 0 -0.35889,0.44744 z m 0.72244,0 a 0.27965213,0.27965213 0 0 1 -0.27033,0.27965 c -0.14448,0 -0.27266,-0.13051 -0.27266,-0.27965 0,-0.14915 0.12818,-0.27965 0.27266,-0.27965 0.14449,0 0.27266,0.1305 0.27266,0.27965 z" />
      </g>
    </g>
  </g>
</svg>
